<svg xmlns="http://www.w3.org/2000/svg" version="1.1" xmlns:xlink="http://www.w3.org/1999/xlink" xmlns:svgjs="http://svgjs.dev/svgjs" viewBox="0 0 800 800"><defs><linearGradient x1="50%" y1="0%" x2="50%" y2="100%" id="ssscribble-grad"><stop stop-color="hsl(206, 75%, 49%)" stop-opacity="1" offset="0%"></stop><stop stop-color="hsl(331, 90%, 56%)" stop-opacity="1" offset="100%"></stop></linearGradient></defs><g fill="none" stroke-width="1.5" stroke="url(#ssscribble-grad)" stroke-linecap="round"><path d="M1092.24 414.75C1002.49 447.61 858.22 493.13 720.77 549.39 639.62 604.96 638.8 669.2 706.31 737.17 817.25 798.14 922.87 853.29 989.08 892.79 1004.51 911.3 961.97 902.46 878.58 862.27 768.2 803.71 655.02 728.28 555.24 653.53 468.85 607.15 405.61 599.68 361.35 644.37 330.54 738.2 308.24 863.51 286.95 988.6 269.15 1077.2 245.32 1101.23 212.46 1047.97 179.6 937.16 139.27 805.56 95.09 695.27 54.41 636.02 16.93 638.96 -9.2 693.61 -21.88 784.95 -12.76 878.65 22.97 949.61 72.1 989.43 138.11 984.78 205.42 942.11 245.74 869.43 249.32 779.86 199.67 687.56 99.25 593.28 -35.83 510.12 -170.86 440.93 -262.46 378.39 -280.35 327.65 -211.87 285.65 -87.11 246.35 50.49 211.01 140.24 178.15 136.32 145.29 46.85 116.46 -83.98 93.79 -207.98 73.81 -270.54 64.77 -253.31 70.36 -165.59 82.6 -36.06 111.64 95.72 155.28 234.88 218.13 232.46 251.4 158.32 160.22 104.97 55.05 69.17 -68.11 53.84 -183.54 48.18 -262.29 59.57 -283.94 82.39 -237.39 108.92 -139.79 140.17 -14.85 173.03 95.95 205.89 149.24 238.8 131.88 274.25 55.98 313.4 -56.42 361.79 -163.04 424.4 -232.79 496.67 -253.4 586.59 -216.47 690.59 -135.89 791.64 -26.92 886.28 87.46 954.94 189.09 982.1 272.36 959.08 328.38 885.13 360.53 737.52 371.16 671.35 353.37 848.67 357.54 992.19 363.26 1088.32 381.9 1092.24 414.75Q1092.24 414.75 1092.24 414.75" opacity="0.57"></path><path d="M1058.24 541.35C977.37 571.86 845.94 611.24 713.17 656.97 620.54 700.85 593.63 747.15 630.56 790.3 717.69 824.77 818.6 847.48 902.09 851.56 954.94 839.3 959.53 804.26 921.23 748.13 848.66 687.52 756.78 624.18 661.87 574.19 565.43 557.61 482.08 579.78 414.56 645.96 355.22 747.43 308.65 867.2 270.82 977.72 236.14 1050.88 204.54 1065.85 174.02 1013.97 143.51 912.27 115.53 789.97 92.67 681.46 72.95 612.07 64.01 594.69 70.48 625.41 85.11 695.92 118.21 780.52 167.62 857.33 239.54 932.13 274.08 875.16 169.07 774.92 53.81 693.79 -74.46 614.36 -183.96 542.68 -243.25 472.17 -233.71 412.12 -152.86 362.85 -31.87 314.97 93.38 275.77 174.24 245.25 173.92 214.74 98.32 194.35 -18.95 184.68 -140.94 176.41 -219.87 180.95 -233.85 198.58 -183.44 217.37 -82.79 246.55 38.42 280.66 158.53 304.55 251.92 319.4 309.27 314.44 330.19 280.85 321.29 217.13 296.2 124.33 256.17 15.75 219.63 -96.2 194.41 -189.08 170.92 -242.18 162.77 -242.18 169.26 -184.59 177.79 -87.85 197.87 28.24 228.38 129.95 258.89 181.86 298.4 173.09 347.41 111.72 398.47 12.97 462.13 -89.42 538.5 -168.54 616.6 -212.36 703.39 -207.17 790.45 -158.83 862.57 -77.07 915.27 22.43 934.35 123.04 916.99 219.16 859.77 298.01 771.44 357.31 682 400.26 608.71 427.81 580.67 446.22 617.01 455.95 713.31 465.16 847.08 478.83 976.13 490.64 1057.92 510.84 1058.24 541.35Q1058.24 541.35 1058.24 541.35" opacity="0.98"></path><path d="M1024.24 617.41C951.94 645.58 833.58 676.12 707.89 706.88 608.51 735.53 560.16 760.33 567.62 776.89 625.7 786.05 709.94 781.32 794.96 759.61 869.05 728.94 910.05 683.16 914.65 627.56 887.53 578.52 833.08 537.37 763.74 516.82 682.34 529.12 602.11 575.85 529.98 656.5 459.13 759.48 399.64 869.82 351.72 964.67 305.4 1023.11 268.25 1030.08 240.09 979.97 211.92 887.25 194.07 774.71 187.27 669.9 182.07 593.74 190.32 559.35 212.36 567.33 235.67 614.31 269.52 682.57 307.51 754.7 333.44 824.39 347.45 873.05 337.65 895.73 296.14 896.1 221.74 871.94 118.32 830.56 3.97 775.38 -105.52 714.01 -184.24 653.38 -212.34 589.54 -180.02 531.95 -91.52 483.4 23.29 434.83 135.94 395.84 208.24 367.67 211.03 339.5 148.55 323.49 45.78 318.93 -114.38 317.54 -150.24 355.05 -19.58 374.32 93.76 372.29 199.76 356.02 284.43 318.74 344.85 259.16 377.15 177.1 387.91 78.08 379.46 -23.36 363.3 -116.89 348.22 -184.52 328.4 -213.15 317.66 -194.81 319.1 -129.53 320.52 -35.59 334.92 71.22 363.09 163.95 391.26 214.09 431.86 212.83 483.55 165.28 535.23 81.3 597.21 -13 665.84 -95.34 729.74 -155.36 792.29 -176.83 844.14 -159.81 876.8 -109.93 884.94 -35.39 861.43 50.56 813.68 143.07 741.08 229.29 657.05 303.38 588.71 368.5 547.98 419.62 553.9 459.26 613.77 491.52 718.52 517.96 845.21 542.43 958.85 564.79 1027.03 589.25 1024.24 617.41Q1024.24 617.41 1024.24 617.41" opacity="0.78"></path><path d="M990.24 615.76C926.18 641.58 820.99 663.26 704.41 679.62 570.64 697.63 576.83 678.37 679.4 635.02 757.29 600.56 818.48 559.35 854.71 518.02 868.47 489.96 855.26 476 821.94 484.71 772.71 521.58 715.07 585.94 656.79 673.7 594.38 772.62 537.89 870.48 490.64 949.16 443.22 993.84 405.92 993.92 380.1 945.97 354.28 862.09 341.17 759.67 339.89 660.29 343.21 556.85 386.73 567.53 403.73 650.18 397.25 716.65 373.39 773.74 325.79 814.34 255.73 841.35 163.92 847.52 59.14 835.96 -40.63 811.4 -123.12 775.88 -169.43 735.23 -169.68 689.18 -120 644.01 -28.38 603.53 78.22 562.03 178.18 527.45 242.24 501.63 247.63 475.81 197.42 459.97 109.65 452.77 3.48 444.56 -88.63 442.76 -145.98 444.07 -162.09 439.97 -131.69 432.97 -65.53 417.75 25.9 389.51 125.48 346.29 218.8 285.44 302.29 211 365.97 123.3 410.06 29.95 437.76 -55.91 452.12 -126.41 459.73 -168.37 459.71 -175.09 461.06 -142.19 468.31 -72.53 474.08 16.87 489 114.06 514.82 197.94 540.64 245.92 576.14 251.08 619.06 216.38 660.5 147.66 706.12 64.49 750.89 -15.5 802.11 -104.94 810.68 -95.08 747.72 -10.89 688.24 64.27 619.28 142.54 554.72 216.8 515.44 289.57 508.2 352.85 543.23 405.82 619.51 454.48 726.32 494.92 842.45 528.87 940.19 561.21 995.63 589.95 990.24 615.76Q990.24 615.76 990.24 615.76" opacity="0.92"></path><path d="M956.22 537C900.04 560.47 807.91 575.57 702.12 582.2 602.54 588.09 527.95 584.35 488.23 570.91 486.74 556.57 517.36 533.42 568.42 503.99 634.78 478.65 698.52 453.63 749.89 435.07 790.57 431.9 810.61 444.78 811.61 478.34 798.9 532.96 772.95 607.06 739.65 694.84 699.97 785.02 659.58 868.29 622.73 930.93 584.57 963.06 552.75 957.39 529.28 911.98 505.8 836.79 491.79 744.72 485.69 652.28 478.27 572.31 475.96 515.58 474.96 486.79 467.59 487.55 454.89 512.23 431.42 552.51 394.24 606.18 340.5 659.7 269.06 705.73 186.93 746.87 95.35 773.38 4.55 785.08 -70.94 787.53 -122.61 777.72 -138.32 759.28 -115.81 735.5 -54.58 707.83 35.93 679.66 132.67 650.1 220.04 622.75 276.22 599.28 283.73 575.8 244.8 557.32 172.06 542.61 78.23 526.52 -11.48 511.49 -79.38 494.59 -119.06 472.36 -120.75 443.51 -88.39 404.88 -28.21 357.01 49.75 296.8 133.49 224.9 219.77 148.11 297.18 66.75 361.63 -11.35 416.69 -76.07 458.58 -121.8 490.17 -139.76 514.93 -128.18 534.89 -84.81 553.7 -13.89 570.62 69.48 590.05 156.79 613.52 231.98 636.99 277.39 663.39 287.81 690.74 264.74 716.2 211.16 738.94 141.25 754.86 68.27 763.95 -2.29 760.72 -55.34 741.84 -85.52 713.56 -94.64 669.86 -79.69 614.34 -45.76 561.37 3.56 511.22 62.28 475.48 123.79 467.55 189.4 490.28 251.2 547.16 306.22 632.25 360.34 735.33 406.78 838.22 445.15 920.02 482.79 963.73 513.51 956.24 536.99Q956.22 537 956.22 537" opacity="0.72"></path><path d="M922.38 409.14C873.91 430.26 794.7 442.21 700.96 445.62 607.02 449.11 527.88 444.44 473.2 432.97 447.31 423.15 449.6 409.14 473.99 394.22 518.04 386.1 569.21 382.95 618.74 389.27 668.08 409.4 705.73 444.18 729.59 495.09 745.5 559.31 748.21 635.28 740.53 716.89 727.33 794.79 708.19 862.34 686.38 909.62 663.02 930.61 639.97 920.35 618.85 877.87 597.72 811.2 579.52 729.6 563.04 645.36 545.01 567.93 525.73 506.21 502.31 465.21 473.39 447.16 435.89 450.17 387.42 469.49 331 504.27 263.03 544.93 186 585.16 108.78 627.29 32.56 661.54 -33.48 685.69 -79.86 705.43 -101.1 714.46 -90.7 714.02 -51.5 709.86 15.61 698.89 101.39 683.14 186.98 666.22 261.91 646.69 310.38 625.57 319.25 604.44 290.25 582.72 231.97 559.81 152.21 535.72 69.79 508.26 -1.18 475.81 -55.71 439.64 -82.31 395.83 -80.53 343.53 -53.95 286.83 -6.06 222.24 54.77 152.43 125.82 84.51 197.76 18.8 264.83 -37.97 330.1 -79.29 386.35 -101.25 433.06 -98.69 475.97 -73.19 511.28 -23.5 540.48 45.77 568.28 121.85 592.46 199.17 613.58 265.84 634.71 308.34 651.77 322.89 663.81 310.06 674.46 270.94 677.57 215.42 671.27 153 661.18 86.88 639.71 29.84 607 -12.37 572.5 -41.29 530.88 -51.02 487.52 -43.47 454.37 -22.11 431.52 11.37 426.94 52.05 447.16 99.52 492.71 148.32 562.72 194.75 649.18 242.83 743.63 285.93 831.54 322.28 897.97 358.71 931.25 388.01 922.38 409.14Q922.38 409.14 922.38 409.14" opacity="0.58"></path><path d="M888.21 278.16C846.7 296.94 779.74 308.83 698.76 314.7 613.62 321.15 535.55 322.8 472.91 321.46 419.03 323.6 438.82 348.51 487.91 384.9 528.97 422.29 566.62 470.91 597.14 530.16 625.87 595.74 644.87 666.59 654.12 737.22 660.45 800.59 658.62 852.25 650.01 885.39 640.33 896.82 625.77 883.14 606.99 843.95 588.21 785.61 566.11 714.48 540.37 639.43 513.57 567.07 481.24 504.34 442.37 455.88 400.57 423.75 350.65 408.4 292.98 407.72 233.52 421.51 168.91 443.97 103.24 470.49 44.12 502.86 -7.3 533.06 -44.25 558.09 -62.26 582.94 -57.79 600.29 -28.33 609.55 20.53 617.26 87.92 617.48 165.82 610.76 239.54 603.4 302.7 590.22 344.21 571.44 354.36 552.66 334.47 529.17 290.11 501.13 225.52 472.43 154.13 438.05 86.47 397.8 25.69 356 -17.07 307.73 -39.01 253.93 -42.47 199.96 -26.01 142.8 5.72 85.82 50.12 34.69 101.89 -10.03 155.63 -43.36 213.03 -62.24 267.11 -63.73 315.22 -45.36 362.93 -10.66 403.73 41.37 437.02 106.49 469.81 174.28 495.84 241.61 514.61 299.95 538.72 347.88 545.47 306.05 527 235.96 511.42 179.1 488.27 125.09 459.81 79.06 422.6 26.19 386.16 1.93 412.07 24.37 453.56 49.09 513.15 78.59 587.7 109.7 669.12 143.59 751.19 176.1 823.04 205.06 874.65 234.6 898.36 259.37 888.23 278.15Q888.21 278.16 888.21 278.16" opacity="0.75"></path><path d="M854.23 190.65C764.48 223.51 620.47 245.88 485.74 266.08 394.85 296.72 365.81 343.65 381.19 418.06 432.13 514.41 481.89 634.25 508.99 752.61 535.11 837.23 532.37 863.23 499.51 809.94 466.65 699.13 406.78 567.22 323.71 457.27 239.66 388.32 138.62 366.91 44.61 377.77 -13.84 416.45 -19.65 453.99 47.14 473.34 157.79 493.58 288.48 488.77 378.23 455.91 374.31 423.05 291.22 365.24 178.26 288.06 66.1 211.76 6.32 122.94 4.72 41.18 46.27 -12.73 117.33 -26.18 189.46 18.68 268.68 104.54 329.99 223.13 362.85 333.94 395.71 387.23 397.02 374.55 374.75 314.01 359.56 219.75 339.78 134.76 341.31 81.48 385.97 50.14 480.6 54.49 616.85 80.8 753.9 117.55 850.31 157.79 854.23 190.65Q854.23 190.65 854.23 190.65" opacity="0.61"></path><path d="M820.22 177.98C747.91 206.14 629.76 238.94 508.22 279.77 406.05 327.37 343.64 393.23 318.65 478.48 325.31 570.8 344.53 671.89 357.47 760.58 375.8 817 374.24 826.09 346.07 775.98 317.9 683.26 265.8 570.55 198.66 467.71 136.91 387.35 73.72 339.54 30.15 319.64 18.22 323.92 50.76 336.45 132.28 342.99 233.18 354.15 339.91 348.53 412.22 320.37 415.04 292.2 357.69 244.15 270.28 184.18 168.7 128.82 93.29 72.34 57.29 31.14 49.12 14.12 72.63 32.05 110.22 91.75 157.11 173.94 200.03 275.23 228.19 367.95 256.37 418.09 267.12 420.42 269.04 384.65 280.26 316.61 300.7 245.39 345.78 189.98 418.69 141.65 523.97 119.74 646.19 120.95 754.26 128.93 823.03 149.8 820.24 177.97Q820.22 177.98 820.22 177.98" opacity="0.40"></path><path d="M786.22 244.63C730.05 268.1 637.98 305.07 536.49 354.32 438.42 406.2 360.95 473.3 309.32 550.84 278.3 626.09 263.54 700.62 254.07 758.97 251.12 790.93 240.99 787.38 217.52 741.98 194.05 666.79 159.46 574.59 121.73 484.8 90.52 404.39 68.65 343.08 68.91 302.29 89.78 277.83 142.35 264.63 223.21 254.25 307.49 248.86 390.05 236.79 446.22 213.32 453.73 189.85 418.69 157.2 358.04 121.91 277.9 91.62 206.21 68.18 156.69 61.87 119.19 71.9 107.12 108.3 114.11 171.51 127.86 244.08 149.55 326.76 173.02 401.95 196.5 447.37 219.52 460.45 246.44 445.7 280.12 404.55 328.82 354.91 397.08 310.43 477.37 263.65 573.95 233.18 671.29 221.97 749.16 213.4 793.73 221.15 786.24 244.62Q786.22 244.63 786.22 244.63" opacity="0.56"></path><path d="M752.29 366.77C710.85 385.55 643.85 418.77 566.44 462.91 484.53 506.91 409.95 560.56 349.92 617.59 299.05 668.77 261.6 714.83 234.52 746.06 211.74 758.78 192.15 747.1 173.37 707.93 154.59 649.59 138.41 578.32 128.64 505.83 123.18 434.96 131.33 373.23 157.58 324.43 193.01 283.88 247.67 253.36 315.81 230.08 379.46 210.16 438.85 191.72 480.29 172.95 490.36 154.17 473.18 136.83 437.32 124.21 383.69 114.95 329.39 116.16 284.89 132.1 241.57 156.29 214.49 198.1 204.61 255.2 197.54 313.93 203.9 377.59 222.68 435.93 241.46 475.1 270.88 494.39 310.49 495.44 352.91 477.97 409.3 451.83 477.22 425.25 546.34 392.84 620.55 368.49 687.94 357.04 737.57 345.43 762.36 348 752.29 366.77Q752.29 366.77 752.29 366.77" opacity="0.38"></path><path d="M718.22 500.87C645.91 529.04 528.16 593.62 424.71 662.39 327.91 710.68 262.17 724.09 234.01 673.98 205.84 581.25 220.58 468.2 280.46 377.84 346.99 297.62 441.91 241.98 514.22 213.81 517.03 185.64 469.82 190.28 417.95 233.58 353.45 287.04 326.38 377.25 354.55 469.98 382.72 520.09 460.79 529.51 562.21 518.14 650.99 486.29 721.03 472.7 718.22 500.87Q718.22 500.87 718.22 500.87" opacity="0.81"></path><path d="M684.24 598.85C575.86 636.41 409.01 694.8 371.46 639.97 333.9 510.62 439.86 358.72 548.24 321.16 535.68 283.61 469.69 374.62 507.25 503.97 544.8 558.8 671.68 561.3 684.24 598.85Q684.24 598.85 684.24 598.85" opacity="0.40"></path></g></svg>